<mxfile host="Electron" modified="2023-11-15T13:27:48.808Z" agent="Mozilla/5.0 (Macintosh; Intel Mac OS X 10_15_7) AppleWebKit/537.36 (KHTML, like Gecko) draw.io/21.5.0 Chrome/112.0.5615.204 Electron/24.5.1 Safari/537.36" etag="pti6dW4tVVoy9Cv9VRsc" version="21.5.0" type="device">
  <diagram name="Page-1" id="V8iajkkfRWbnq8cqNc54">
    <mxGraphModel dx="1940" dy="732" grid="1" gridSize="10" guides="1" tooltips="1" connect="1" arrows="1" fold="1" page="1" pageScale="1" pageWidth="850" pageHeight="1100" math="0" shadow="0">
      <root>
        <mxCell id="0" />
        <mxCell id="1" parent="0" />
        <mxCell id="z3aHcokVeFD5a5DID691-1" value="" style="rounded=0;whiteSpace=wrap;html=1;hachureGap=4;fontFamily=Architects Daughter;fontSource=https%3A%2F%2Ffonts.googleapis.com%2Fcss%3Ffamily%3DArchitects%2BDaughter;fontSize=20;" parent="1" vertex="1">
          <mxGeometry x="-840" y="90" width="740" height="200" as="geometry" />
        </mxCell>
        <mxCell id="cj5upKAFC0kw5nNdeIVg-1" value="" style="rounded=0;whiteSpace=wrap;html=1;shadow=0;fillColor=#dae8fc;strokeColor=#6c8ebf;" parent="1" vertex="1">
          <mxGeometry x="-423.8" y="90" width="133.8" height="200" as="geometry" />
        </mxCell>
        <mxCell id="cj5upKAFC0kw5nNdeIVg-2" value="Id             Value" style="swimlane;childLayout=stackLayout;horizontal=1;startSize=31;horizontalStack=0;rounded=1;fontSize=13;fontStyle=0;strokeWidth=2;resizeParent=0;resizeLast=1;shadow=0;dashed=0;align=center;arcSize=12;fontFamily=Verdana;" parent="1" vertex="1">
          <mxGeometry x="-631" y="133" width="144.2" height="131" as="geometry">
            <mxRectangle x="385.8" y="100" width="90" height="30" as="alternateBounds" />
          </mxGeometry>
        </mxCell>
        <mxCell id="cj5upKAFC0kw5nNdeIVg-33" value="" style="endArrow=classic;html=1;rounded=0;fontSize=18;fontColor=#000000;endSize=6;startSize=6;" parent="cj5upKAFC0kw5nNdeIVg-2" edge="1">
          <mxGeometry width="50" height="50" relative="1" as="geometry">
            <mxPoint x="1" y="49" as="sourcePoint" />
            <mxPoint x="-44.8" y="49.31" as="targetPoint" />
          </mxGeometry>
        </mxCell>
        <mxCell id="cj5upKAFC0kw5nNdeIVg-35" value="" style="endArrow=none;html=1;rounded=0;fontSize=18;fontColor=#000000;endSize=6;startSize=6;exitX=0;exitY=0.5;exitDx=0;exitDy=0;endFill=0;" parent="cj5upKAFC0kw5nNdeIVg-2" edge="1">
          <mxGeometry width="50" height="50" relative="1" as="geometry">
            <mxPoint y="67.5" as="sourcePoint" />
            <mxPoint x="-28" y="49" as="targetPoint" />
            <Array as="points">
              <mxPoint x="-28" y="68" />
            </Array>
          </mxGeometry>
        </mxCell>
        <mxCell id="cj5upKAFC0kw5nNdeIVg-3" value="&lt;font face=&quot;Verdana&quot; size=&quot;1&quot;&gt;&lt;span style=&quot;font-size: 13px&quot;&gt;on-chain&lt;br&gt;Beacons&lt;/span&gt;&lt;/font&gt;" style="text;html=1;strokeColor=none;fillColor=none;align=center;verticalAlign=middle;whiteSpace=wrap;rounded=0;fontFamily=Courier New;" parent="1" vertex="1">
          <mxGeometry x="-583.9" y="98.5" width="60" height="30" as="geometry" />
        </mxCell>
        <mxCell id="cj5upKAFC0kw5nNdeIVg-4" value="&lt;span style=&quot;font-size: 13px&quot;&gt;3Gpex6g5&amp;nbsp; 10.098&lt;/span&gt;" style="text;html=1;strokeColor=none;fillColor=none;align=left;verticalAlign=middle;whiteSpace=wrap;rounded=0;fontFamily=Courier New;" parent="1" vertex="1">
          <mxGeometry x="-618.4" y="171" width="129" height="20" as="geometry" />
        </mxCell>
        <mxCell id="cj5upKAFC0kw5nNdeIVg-5" value="&lt;span style=&quot;font-size: 13px;&quot;&gt;1FeexV6A&amp;nbsp; 10.09&lt;/span&gt;" style="text;html=1;strokeColor=none;fillColor=none;align=left;verticalAlign=middle;whiteSpace=wrap;rounded=0;fontFamily=Courier New;" parent="1" vertex="1">
          <mxGeometry x="-618.4" y="191" width="129" height="20" as="geometry" />
        </mxCell>
        <mxCell id="cj5upKAFC0kw5nNdeIVg-6" value="&lt;span style=&quot;font-size: 13px;&quot;&gt;bc1qawkg&amp;nbsp; 345.07&lt;/span&gt;" style="text;html=1;strokeColor=none;fillColor=none;align=left;verticalAlign=middle;whiteSpace=wrap;rounded=0;fontFamily=Courier New;" parent="1" vertex="1">
          <mxGeometry x="-618.4" y="211" width="129" height="20" as="geometry" />
        </mxCell>
        <mxCell id="cj5upKAFC0kw5nNdeIVg-7" value="&lt;span style=&quot;font-size: 13px&quot;&gt;1AC4fMwg&amp;nbsp; 16.093&lt;/span&gt;" style="text;html=1;strokeColor=none;fillColor=none;align=left;verticalAlign=middle;whiteSpace=wrap;rounded=0;fontFamily=Courier New;" parent="1" vertex="1">
          <mxGeometry x="-618.4" y="231" width="129" height="23" as="geometry" />
        </mxCell>
        <mxCell id="cj5upKAFC0kw5nNdeIVg-8" value="&lt;font face=&quot;Verdana&quot; style=&quot;font-size: 13px&quot;&gt;off-chain Airnodes&lt;/font&gt;" style="text;html=1;strokeColor=none;fillColor=none;align=center;verticalAlign=middle;whiteSpace=wrap;rounded=0;shadow=1;fontSize=14;" parent="1" vertex="1">
          <mxGeometry x="-426.8" y="105.5" width="100" height="30" as="geometry" />
        </mxCell>
        <mxCell id="cj5upKAFC0kw5nNdeIVg-9" value="" style="shape=image;verticalLabelPosition=bottom;labelBackgroundColor=#ffffff;verticalAlign=top;aspect=fixed;imageAspect=0;image=data:image/png,iVBORw0KGgoAAAANSUhEUgAAAFgAAABMCAYAAADp0nC5AAAACXBIWXMAABYlAAAWJQFJUiTwAAAAAXNSR0IArs4c6QAAAARnQU1BAACxjwv8YQUAAAUQSURBVHgB7Zy9ctRKEIWP/6p8s71voJvdzIaIDEFECE/AwgvYEJKwEJFhQhJYMjJMBEQsGRk4I7NSElgyqLK9nDbjKuNyWT0zraVFzVelkrQer6WjVk9PT4+BQqFQKBQKhUKhUCj0iwX0l3pxcXFtYWFhfTabrfN8wOPqeAN+3vCzhodTHk8ODg52eDzBHOmbwPXS0tJ17q9yGyCNKbft/f39Z5iz2F4Z0FLvUtiv3GbG2254YJ3h2oIp7AZf8RHSrVVLw20UrNoUrwJXtKyn3NeYLw1FvoRfgpuwBGeI1XJ7zsP/MX/EHQ351vxgp/geBrgSWHwtb+4BD1fx51jlNVzhJlHIO2TixkVQ3Ke8qSF8MabLuIEMuhL4KEatJUblXjqpo45qehSfhtj0XejMhvBJlsiWAov/2uB+eDLg7zs0hBEN4R4SMPHB4julYwq+q+uQau7Im8jtW0rHl2vB1fLy8oswVE2GF/+I37GG+YdlMUzpKs4hMoRbRCIyAuL2IVdcMt7b29sM8ec18c/wySDE5lEkuYgwvBwjM5wSMenbpAOZhvNP3J7x+//h6QX4o4p1FdEC8+Yl0fIcBvBiN0+JNb9T9Nf8O+K+ajiD13yB1/yYh9817WMFrtiZvYLBQOCY9Z4KfzZxKvJqGOlNNI2jOjnJPnFXwYahJrnCTnSLN7MBX0iH96+mobqTk1AMRuKK9WozV+wARw47vgEffK1pqBW4Mh5pPYpoO+XDzRqudgEfuiqPrBKYrqGGnWsQ/7od055WPIG/2YermkZaC74LI8Lr3iASvkFJQ9UOUbkJjcAykKhgBIWaIIFgxVM4gm9i6yCrVWD6vxqG0IJ3kIgMQuAIGstaW5tWgfklF2EIH9hHJMJrSf7dLtCkCTQCVzCEr3qDRBjauRJYkzlsHWjIdDkMZ3UpUk4GbxCuxw1t96Pp5Dzld111chqS05UFHRqBra0m543o3WxJ3wSu4IumrYFGYOueO1lgdnAVfNG0NWgV2KL44rc/mDdwUY3/58i3tgaakZypBWtGP2dgOujJRZN0bxU45AAa2FEjgTBVVcERGuNThWnGOYAKaUK5m9UIxncmKoGZNdqCYTQhFYyIQ6y3hi9UOW3tQEPqyWJmIc6EfjjGGmV4/BDO4D2o3mr1SI5WLHNjVh2efk7LcC7QCpk00LgHIWqoTJGvwchV8CJbZ0lCvfAmnBGWNaiIrYuQCcjPsIlHpcZiR6p5TvthEHcEZ/B6d2loN7Xto5M9TM+NubOa5RXfenJkJ2WwDz2KK8TODSbVpokvFuvj4RXkVflIB7ZKi3gTzmUd3Cspg4VDYq1XyC5fpdBvc2c9eOFbsmITjstXeY1fKe55RA66cguwD8M3qSHjvkotvpaCOvjLlP0G7/GOFCUiEpMKdynUo8AvQ6e1/rdVuYvfZVj2AAl0sghmZWVlnZ3hxbAIpsKv0qtD0XkuYd5UZoglWRIeypCfdbqkNQM3i2Cy4Cs4hj+Rs5dxuVmISCvedlQPPOMbdp/i3kImrlZ6ii+XEv3Q6f2R1Z4SLUiHlupzT+J2MbhF+BfJjNuEVitxbgMjvE7by/KC/7i/MY/ia7FaPtDbFPcybCcX+gFf2SEF2DX+ZxwH/M4vzOqN0MNygE6QFKdEGxQm+b+fhN99ok2X5uLVB7ciAtGNHC445+kgjCSr422CezmKuQ/zJ9o8bqFQKBQKhUKhUCgUCoVCH/kJr747GFhZPEgAAAAASUVORK5CYII=;" parent="1" vertex="1">
          <mxGeometry x="-346.8" y="108.32" width="28" height="24.18" as="geometry" />
        </mxCell>
        <mxCell id="cj5upKAFC0kw5nNdeIVg-10" style="edgeStyle=orthogonalEdgeStyle;rounded=0;orthogonalLoop=1;jettySize=auto;html=1;fontSize=11;fontColor=#000000;" parent="1" source="cj5upKAFC0kw5nNdeIVg-12" edge="1">
          <mxGeometry relative="1" as="geometry">
            <mxPoint x="-483.8" y="181" as="targetPoint" />
            <Array as="points">
              <mxPoint x="-433.8" y="172" />
              <mxPoint x="-433.8" y="181" />
            </Array>
          </mxGeometry>
        </mxCell>
        <mxCell id="cj5upKAFC0kw5nNdeIVg-11" value="&amp;nbsp;A&amp;nbsp;" style="edgeLabel;html=1;align=center;verticalAlign=middle;resizable=0;points=[];fontSize=11;fontColor=#000000;labelBackgroundColor=#D4E1F5;" parent="cj5upKAFC0kw5nNdeIVg-10" vertex="1" connectable="0">
          <mxGeometry x="0.031" y="1" relative="1" as="geometry">
            <mxPoint x="21" y="-3" as="offset" />
          </mxGeometry>
        </mxCell>
        <mxCell id="cj5upKAFC0kw5nNdeIVg-12" value="XYZ, Inc." style="shape=image;verticalLabelPosition=bottom;labelBackgroundColor=none;verticalAlign=top;aspect=fixed;imageAspect=0;image=data:image/png,iVBORw0KGgoAAAANSUhEUgAAAFgAAABMCAYAAADp0nC5AAAACXBIWXMAABYlAAAWJQFJUiTwAAAAAXNSR0IArs4c6QAAAARnQU1BAACxjwv8YQUAAAeXSURBVHgB7VxdTxw3FL2wH2RX7dKwSUBkeSCtqJI8UFWpqrzkx1eq+tCqatQ2aqkIikANLV1KthTE19BzZq/BbAlje2aYXclHcuwl4xn7+M719fX1iERERERERERERERERERMFqZkctFF6jQajdnz8/MOynXkbfuCqampA2SHyE+APsoDpL7cIiaN4C4IXQKR80gNCQDJRtoG4VtyC2RPAsGNmZmZ5bOzs2WbVPymdO4ivZMhUadIx5obUKJbSJTw2Xq9PmdLOYg+PD09/RXFLSkJY03wnTt3lkHAiiGW0offGzIk5EDCQMIXQPayIbtMoseV4DYIWAUB1LOUVkromhT/SvfwnJURor+R8MH7H8aOYFtqOUmh/DP+/IeUiwui9S3hYG5IAajJGAG6dgWde4xiDVL7OkmS71H+R8rHAM/aBsFNEHx3enr6QbPZNG9OLowNwbAOVtGhRywjp9T+hpTI7YGTI0k+IcEgvAupbiHP9faUpSKMjdpVG7VhT1QytE0P1Dbt47pldGRJX0/qwIFUiw7Ifc42g+xNtPOlBKJIgo051Rs1+F2But9K+frWFRckI187OjpakwAUQjB1p22nqiTS5KGNSmnkrGzs07oM7dO2Tiydi8ZgFq/VapuhnSkBHbTnBQuqtrwnvrw6mCQ9x+u9KMOJqQ/CXuL3j/i9I0Nyj+SqLk3M3/D6faz1XqNeAoI71H3o1JLqvhOpFkdGJ6NNd9Gmt75tCia41WotIXumps0BSPpOhrbqoUt9DMwL1J1BPUo6B2QLvwfoyEe8J/IeOrSPv/8r1WJPTUYOPAXAazESRDDJPT4+XpWr5pQPET00mJPaAer+IJfqY58dQIdq7BAk5yHKHLCqJ709kLuIttCxRAnec60YQjAdLZ+zAHIpsb+IpzkF6f0CWUP12u7If/NeO3iGgGCSvDAGJGPck0O0ZVFVxRtx7PO0+IE69zMWlNyQyYhWRktdiTe9bmv6DA7IExlOjFViG23u60T+yLWSF8HGbKFakDByeY9PmetyNAskeUNNpWdSMUyb6ShyreNMME0xS/JCzaiuo/TaWOP1as6tSLXo0wRVKe66VHAluA1JotUg6nw5lQBgxdbTe/jYk7Sp05WUSk5dKoTV9iWX610JpqO6pc6P4JUW7rGgxW3xQz9E/5WETf6DwZ53udiJYKM3JVw1EF3jghRHW9mGpf+cJKdEHKrKclITLgTPWnozj/suXRKDqF0Jg9F/3JFw0n9lAX0wPHSyrnUheE5vGkpMCnrWtPhOAqH+DSKzYyXD2OSzWRdmEmwR81ZywNqwzLNgMINTqQSLLo6grj7MujCTYMv16K03R9Aq4D7p7gY6lik5JeNY82bWhS4qwhCTayPQGqg89zF1KzXVRM1UnQ9uhIsEN+ybVozUVRgadFJ0O1zg64uI8EQmwbqHRhT1Wua5j72vNxFwkWDTmVzeLLWjicyJ4QYUoceLQKp7ucWVdaGLBDvbfBmw9+RCkXYM9nBeiyYv2tqOzIHOJFi31olMm+8moDG5bVjY5Gb9f6shqNfALHQyVZWLikgluAAfQO43AdbDPS1WSjAGuuPaDheC+z7OjRtgBir0HguWT6TSPTproDPb4WSmGR8A4xgkHLazxnvCNLsIjjshZaKtA031UIgEExtKDqUvWIpBjvED9/xqptLbLcCjVwTSeQB9cfKLuxJsAp9FNz1DLQHzJjjvaQHcj3vKgr5JlVoQaItx+G+6XO+zkuPe2ICvR7PZDFUV3ntafFYBe4FFoefrG/eKi0iS5E8Na7oXGj+LujXGO+A+7awoGY15+0Rj3b6Wiv0hI/EcThOtry+CIfavWGAUOgkQf9j6/L37WhqMvaLPYvRP1YsL13iOKwiJ7KGaYJTLAgP1YBPWMaJ/i3t0D6NkEg2om0Nxc6RuA2/HY0oufyDnjvLvUi1MwI2X9BKhwX8DDdS7T3WB/CFyjqxrfBpjvdLgbAzQNBq9o39nVPmXuNd9Sjn+/pM4TiZlAm18YqwYtM0rGDtvfHBLo33MKZ0+XmdG/biYMC2NsGyAbAYQzppTRZxMcR8GY1etFtJDOXAXPNV54CvfNuWNDz4FMQxtEpDUYvQhIyI5EWqop3lGIpdqgBbEB0g8bEL/xgzq3UXeVqld12jNyh38jFdG2zixUVUxyHHH8xaFHiFIt9Ptc2e+QCd4PqPqhUQKkgshMbF4oYGOhZ4yosQNVKJ5Wmf/fIgEDZ02z1IpZeT4LtIbpHUMCtf3s7iOEyel5EgqxAi5nANeSSDG5iAij3HxpBHLoechioDRudoOkht8wogYm3NyPJNhBV0/0DNq3Ka/re2h1Dw0treqhWDJNRirk54AA/xOGEXOiU9VBgku2z05z1WaZR5yQluXAjCuh8FHzb+yTsObSdk+dF7oqnHcvxdx3Wl4Y2eHbny2sQzvXXOur7AD4DYm5YsnvVHzj2Qj/YUJieqDiVJnk97QRNdqVz89M/pBDuOG5aCVYndP3CdlkJYY/JznkzLqLKeFED8pcwPSA+dI3B+jlLboArUv0M/OpPa5XB7rHYuFTEREREREREREREREREREREQZ+A9VvFdUS5PZbwAAAABJRU5ErkJggg==;fontColor=default;spacing=-11;fontSize=11;" parent="1" vertex="1">
          <mxGeometry x="-353.3" y="150.63" width="50" height="43.18" as="geometry" />
        </mxCell>
        <mxCell id="cj5upKAFC0kw5nNdeIVg-13" style="edgeStyle=orthogonalEdgeStyle;rounded=0;orthogonalLoop=1;jettySize=auto;html=1;fontSize=11;fontColor=#000000;" parent="1" source="cj5upKAFC0kw5nNdeIVg-15" edge="1">
          <mxGeometry relative="1" as="geometry">
            <mxPoint x="-483.8" y="199" as="targetPoint" />
            <Array as="points">
              <mxPoint x="-433.8" y="224" />
              <mxPoint x="-433.8" y="199" />
            </Array>
          </mxGeometry>
        </mxCell>
        <mxCell id="cj5upKAFC0kw5nNdeIVg-14" value="&amp;nbsp;B&amp;nbsp;" style="edgeLabel;html=1;align=center;verticalAlign=middle;resizable=0;points=[];fontSize=11;fontColor=#000000;labelBackgroundColor=#D4E1F5;" parent="cj5upKAFC0kw5nNdeIVg-13" vertex="1" connectable="0">
          <mxGeometry x="0.2292" y="1" relative="1" as="geometry">
            <mxPoint x="30" y="15" as="offset" />
          </mxGeometry>
        </mxCell>
        <mxCell id="cj5upKAFC0kw5nNdeIVg-15" value="ABC, Inc." style="shape=image;verticalLabelPosition=bottom;labelBackgroundColor=none;verticalAlign=top;aspect=fixed;imageAspect=0;image=data:image/png,iVBORw0KGgoAAAANSUhEUgAAAFgAAABMCAYAAADp0nC5AAAACXBIWXMAABYlAAAWJQFJUiTwAAAAAXNSR0IArs4c6QAAAARnQU1BAACxjwv8YQUAAAeXSURBVHgB7VxdTxw3FL2wH2RX7dKwSUBkeSCtqJI8UFWpqrzkx1eq+tCqatQ2aqkIikANLV1KthTE19BzZq/BbAlje2aYXclHcuwl4xn7+M719fX1iERERERERERERERERERMFqZkctFF6jQajdnz8/MOynXkbfuCqampA2SHyE+APsoDpL7cIiaN4C4IXQKR80gNCQDJRtoG4VtyC2RPAsGNmZmZ5bOzs2WbVPymdO4ivZMhUadIx5obUKJbSJTw2Xq9PmdLOYg+PD09/RXFLSkJY03wnTt3lkHAiiGW0offGzIk5EDCQMIXQPayIbtMoseV4DYIWAUB1LOUVkromhT/SvfwnJURor+R8MH7H8aOYFtqOUmh/DP+/IeUiwui9S3hYG5IAajJGAG6dgWde4xiDVL7OkmS71H+R8rHAM/aBsFNEHx3enr6QbPZNG9OLowNwbAOVtGhRywjp9T+hpTI7YGTI0k+IcEgvAupbiHP9faUpSKMjdpVG7VhT1QytE0P1Dbt47pldGRJX0/qwIFUiw7Ifc42g+xNtPOlBKJIgo051Rs1+F2But9K+frWFRckI187OjpakwAUQjB1p22nqiTS5KGNSmnkrGzs07oM7dO2Tiydi8ZgFq/VapuhnSkBHbTnBQuqtrwnvrw6mCQ9x+u9KMOJqQ/CXuL3j/i9I0Nyj+SqLk3M3/D6faz1XqNeAoI71H3o1JLqvhOpFkdGJ6NNd9Gmt75tCia41WotIXumps0BSPpOhrbqoUt9DMwL1J1BPUo6B2QLvwfoyEe8J/IeOrSPv/8r1WJPTUYOPAXAazESRDDJPT4+XpWr5pQPET00mJPaAer+IJfqY58dQIdq7BAk5yHKHLCqJ709kLuIttCxRAnec60YQjAdLZ+zAHIpsb+IpzkF6f0CWUP12u7If/NeO3iGgGCSvDAGJGPck0O0ZVFVxRtx7PO0+IE69zMWlNyQyYhWRktdiTe9bmv6DA7IExlOjFViG23u60T+yLWSF8HGbKFakDByeY9PmetyNAskeUNNpWdSMUyb6ShyreNMME0xS/JCzaiuo/TaWOP1as6tSLXo0wRVKe66VHAluA1JotUg6nw5lQBgxdbTe/jYk7Sp05WUSk5dKoTV9iWX610JpqO6pc6P4JUW7rGgxW3xQz9E/5WETf6DwZ53udiJYKM3JVw1EF3jghRHW9mGpf+cJKdEHKrKclITLgTPWnozj/suXRKDqF0Jg9F/3JFw0n9lAX0wPHSyrnUheE5vGkpMCnrWtPhOAqH+DSKzYyXD2OSzWRdmEmwR81ZywNqwzLNgMINTqQSLLo6grj7MujCTYMv16K03R9Aq4D7p7gY6lik5JeNY82bWhS4qwhCTayPQGqg89zF1KzXVRM1UnQ9uhIsEN+ybVozUVRgadFJ0O1zg64uI8EQmwbqHRhT1Wua5j72vNxFwkWDTmVzeLLWjicyJ4QYUoceLQKp7ucWVdaGLBDvbfBmw9+RCkXYM9nBeiyYv2tqOzIHOJFi31olMm+8moDG5bVjY5Gb9f6shqNfALHQyVZWLikgluAAfQO43AdbDPS1WSjAGuuPaDheC+z7OjRtgBir0HguWT6TSPTproDPb4WSmGR8A4xgkHLazxnvCNLsIjjshZaKtA031UIgEExtKDqUvWIpBjvED9/xqptLbLcCjVwTSeQB9cfKLuxJsAp9FNz1DLQHzJjjvaQHcj3vKgr5JlVoQaItx+G+6XO+zkuPe2ICvR7PZDFUV3ntafFYBe4FFoefrG/eKi0iS5E8Na7oXGj+LujXGO+A+7awoGY15+0Rj3b6Wiv0hI/EcThOtry+CIfavWGAUOgkQf9j6/L37WhqMvaLPYvRP1YsL13iOKwiJ7KGaYJTLAgP1YBPWMaJ/i3t0D6NkEg2om0Nxc6RuA2/HY0oufyDnjvLvUi1MwI2X9BKhwX8DDdS7T3WB/CFyjqxrfBpjvdLgbAzQNBq9o39nVPmXuNd9Sjn+/pM4TiZlAm18YqwYtM0rGDtvfHBLo33MKZ0+XmdG/biYMC2NsGyAbAYQzppTRZxMcR8GY1etFtJDOXAXPNV54CvfNuWNDz4FMQxtEpDUYvQhIyI5EWqop3lGIpdqgBbEB0g8bEL/xgzq3UXeVqld12jNyh38jFdG2zixUVUxyHHH8xaFHiFIt9Ptc2e+QCd4PqPqhUQKkgshMbF4oYGOhZ4yosQNVKJ5Wmf/fIgEDZ02z1IpZeT4LtIbpHUMCtf3s7iOEyel5EgqxAi5nANeSSDG5iAij3HxpBHLoechioDRudoOkht8wogYm3NyPJNhBV0/0DNq3Ka/re2h1Dw0treqhWDJNRirk54AA/xOGEXOiU9VBgku2z05z1WaZR5yQluXAjCuh8FHzb+yTsObSdk+dF7oqnHcvxdx3Wl4Y2eHbny2sQzvXXOur7AD4DYm5YsnvVHzj2Qj/YUJieqDiVJnk97QRNdqVz89M/pBDuOG5aCVYndP3CdlkJYY/JznkzLqLKeFED8pcwPSA+dI3B+jlLboArUv0M/OpPa5XB7rHYuFTEREREREREREREREREREREQZ+A9VvFdUS5PZbwAAAABJRU5ErkJggg==;fontColor=default;spacing=-11;fontSize=11;" parent="1" vertex="1">
          <mxGeometry x="-352.7999999999999" y="211.31" width="50" height="43.19" as="geometry" />
        </mxCell>
        <mxCell id="cj5upKAFC0kw5nNdeIVg-16" value="" style="whiteSpace=wrap;html=1;aspect=fixed;labelBackgroundColor=none;fontSize=11;fillColor=#f8cecc;strokeColor=#b85450;" parent="1" vertex="1">
          <mxGeometry x="-290" y="90" width="200" height="200" as="geometry" />
        </mxCell>
        <mxCell id="cj5upKAFC0kw5nNdeIVg-17" value="&lt;font style=&quot;font-size: 18px;&quot;&gt;API&lt;br&gt;operations&lt;br&gt;&lt;/font&gt;" style="text;html=1;strokeColor=none;fillColor=none;align=center;verticalAlign=middle;whiteSpace=wrap;rounded=0;fontSize=11;fontColor=default;" parent="1" vertex="1">
          <mxGeometry x="-223.79999999999995" y="103" width="60" height="30" as="geometry" />
        </mxCell>
        <mxCell id="cj5upKAFC0kw5nNdeIVg-18" value="B" style="shape=curlyBracket;whiteSpace=wrap;html=1;rounded=1;labelPosition=left;verticalLabelPosition=middle;align=right;verticalAlign=middle;labelBackgroundColor=none;fontSize=13;fontColor=default;" parent="1" vertex="1">
          <mxGeometry x="-245.79999999999995" y="203.31" width="39" height="23" as="geometry" />
        </mxCell>
        <mxCell id="cj5upKAFC0kw5nNdeIVg-19" value="&lt;font style=&quot;font-size: 11px;&quot;&gt;&lt;b&gt;ZIL/USD&lt;/b&gt; - ABC, Inc.&lt;/font&gt;" style="text;html=1;strokeColor=none;fillColor=none;align=center;verticalAlign=middle;whiteSpace=wrap;rounded=0;fontSize=13;fontColor=default;" parent="1" vertex="1">
          <mxGeometry x="-225.79999999999995" y="199.81" width="120" height="30" as="geometry" />
        </mxCell>
        <mxCell id="cj5upKAFC0kw5nNdeIVg-20" value="A" style="shape=curlyBracket;whiteSpace=wrap;html=1;rounded=1;labelPosition=left;verticalLabelPosition=middle;align=right;verticalAlign=middle;labelBackgroundColor=none;fontSize=13;fontColor=default;" parent="1" vertex="1">
          <mxGeometry x="-247.79999999999995" y="159.13" width="42" height="23" as="geometry" />
        </mxCell>
        <mxCell id="cj5upKAFC0kw5nNdeIVg-21" value="&lt;font style=&quot;font-size: 11px;&quot;&gt;&lt;b&gt;ZIL/USD&lt;/b&gt; - XYZ, Inc.&lt;/font&gt;" style="text;html=1;strokeColor=none;fillColor=none;align=center;verticalAlign=middle;whiteSpace=wrap;rounded=0;fontSize=13;fontColor=default;" parent="1" vertex="1">
          <mxGeometry x="-217.79999999999995" y="155.63" width="102" height="30" as="geometry" />
        </mxCell>
        <mxCell id="cj5upKAFC0kw5nNdeIVg-22" value="C" style="shape=curlyBracket;whiteSpace=wrap;html=1;rounded=1;labelPosition=left;verticalLabelPosition=middle;align=right;verticalAlign=middle;labelBackgroundColor=none;fontSize=13;fontColor=default;" parent="1" vertex="1">
          <mxGeometry x="-245.79999999999995" y="239.07999999999998" width="39" height="23" as="geometry" />
        </mxCell>
        <mxCell id="cj5upKAFC0kw5nNdeIVg-23" value="&lt;font style=&quot;font-size: 11px;&quot;&gt;&lt;b&gt;AAVE/USD&lt;/b&gt; - ABC, Inc.&lt;/font&gt;" style="text;html=1;strokeColor=none;fillColor=none;align=center;verticalAlign=middle;whiteSpace=wrap;rounded=0;fontSize=13;fontColor=default;" parent="1" vertex="1">
          <mxGeometry x="-226.79999999999995" y="235.58000000000004" width="141" height="30" as="geometry" />
        </mxCell>
        <mxCell id="cj5upKAFC0kw5nNdeIVg-24" value="" style="endArrow=classic;html=1;rounded=0;fontSize=18;fontColor=#000000;endSize=6;startSize=6;strokeWidth=1;" parent="1" edge="1">
          <mxGeometry width="50" height="50" relative="1" as="geometry">
            <mxPoint x="-353" y="243" as="sourcePoint" />
            <mxPoint x="-484" y="244.07999999999998" as="targetPoint" />
          </mxGeometry>
        </mxCell>
        <mxCell id="cj5upKAFC0kw5nNdeIVg-25" value="&amp;nbsp;C&amp;nbsp;" style="edgeLabel;html=1;align=center;verticalAlign=middle;resizable=0;points=[];fontSize=11;fontColor=#000000;labelBackgroundColor=#D4E1F5;" parent="cj5upKAFC0kw5nNdeIVg-24" vertex="1" connectable="0">
          <mxGeometry x="-0.0725" y="-3" relative="1" as="geometry">
            <mxPoint x="10" y="3" as="offset" />
          </mxGeometry>
        </mxCell>
        <mxCell id="cj5upKAFC0kw5nNdeIVg-27" value="Id             Value" style="swimlane;childLayout=stackLayout;horizontal=1;startSize=31;horizontalStack=0;rounded=1;fontSize=13;fontStyle=0;strokeWidth=2;resizeParent=0;resizeLast=1;shadow=0;dashed=0;align=center;arcSize=12;fontFamily=Verdana;" parent="1" vertex="1">
          <mxGeometry x="-820" y="134.81" width="144.2" height="85.5" as="geometry">
            <mxRectangle x="-21" y="134.81" width="90" height="30" as="alternateBounds" />
          </mxGeometry>
        </mxCell>
        <mxCell id="cj5upKAFC0kw5nNdeIVg-28" value="&lt;font face=&quot;Verdana&quot; size=&quot;1&quot;&gt;&lt;span style=&quot;font-size: 13px&quot;&gt;on-chain&lt;br&gt;dAPIs&lt;br&gt;&lt;/span&gt;&lt;/font&gt;" style="text;html=1;strokeColor=none;fillColor=none;align=center;verticalAlign=middle;whiteSpace=wrap;rounded=0;fontFamily=Courier New;" parent="1" vertex="1">
          <mxGeometry x="-772.9" y="100.31" width="60" height="30" as="geometry" />
        </mxCell>
        <mxCell id="cj5upKAFC0kw5nNdeIVg-29" value="&lt;span style=&quot;font-size: 13px&quot;&gt;ZIL/USD&amp;nbsp; 10.094&lt;/span&gt;" style="text;html=1;strokeColor=none;fillColor=none;align=left;verticalAlign=middle;whiteSpace=wrap;rounded=0;fontFamily=Courier New;" parent="1" vertex="1">
          <mxGeometry x="-807.4" y="172.81" width="129" height="20" as="geometry" />
        </mxCell>
        <mxCell id="cj5upKAFC0kw5nNdeIVg-30" value="&lt;span style=&quot;font-size: 13px;&quot;&gt;...&lt;/span&gt;" style="text;html=1;strokeColor=none;fillColor=none;align=left;verticalAlign=middle;whiteSpace=wrap;rounded=0;fontFamily=Courier New;" parent="1" vertex="1">
          <mxGeometry x="-807.4" y="192.81" width="129" height="20" as="geometry" />
        </mxCell>
        <mxCell id="3el9rxvcG0Gvtiok6L4N-1" value="&lt;font face=&quot;Verdana&quot; style=&quot;font-size: 12px;&quot;&gt;via Airseeker&lt;/font&gt;" style="text;html=1;strokeColor=none;fillColor=none;align=center;verticalAlign=middle;whiteSpace=wrap;rounded=0;fontSize=20;fontFamily=Architects Daughter;rotation=0;" parent="1" vertex="1">
          <mxGeometry x="-535.4" y="258.5" width="135" height="30" as="geometry" />
        </mxCell>
        <mxCell id="3el9rxvcG0Gvtiok6L4N-14" value="" style="endArrow=none;html=1;rounded=0;fontSize=18;fontColor=#000000;endSize=6;startSize=6;endFill=0;strokeWidth=5;strokeColor=#CCCCCC;dashed=1;dashPattern=1 1;" parent="1" edge="1">
          <mxGeometry width="50" height="50" relative="1" as="geometry">
            <mxPoint x="-457" y="267" as="sourcePoint" />
            <mxPoint x="-458" y="180" as="targetPoint" />
          </mxGeometry>
        </mxCell>
        <mxCell id="3el9rxvcG0Gvtiok6L4N-21" value="" style="strokeWidth=1;html=1;shape=mxgraph.flowchart.annotation_2;align=left;labelPosition=right;pointerEvents=1;labelBackgroundColor=#D4E1F5;fontSize=11;fontColor=#000000;" parent="1" vertex="1">
          <mxGeometry x="-300" y="216" width="39.7" height="34" as="geometry" />
        </mxCell>
        <mxCell id="3el9rxvcG0Gvtiok6L4N-22" value="" style="endArrow=none;html=1;rounded=0;fontSize=18;fontColor=#000000;endSize=6;startSize=6;endFill=0;" parent="1" edge="1">
          <mxGeometry width="50" height="50" relative="1" as="geometry">
            <mxPoint x="-262" y="171" as="sourcePoint" />
            <mxPoint x="-300" y="171" as="targetPoint" />
          </mxGeometry>
        </mxCell>
      </root>
    </mxGraphModel>
  </diagram>
</mxfile>
